<svg width="56" height="76" viewBox="0 0 56 76" fill="none" xmlns="http://www.w3.org/2000/svg">
<path d="M28 48C34.64 48 39.96 42.64 39.96 36L40 12C40 5.36 34.64 0 28 0C21.36 0 16 5.36 16 12V36C16 42.64 21.36 48 28 48ZM23.2 11.6C23.2 8.96 25.36 6.8 28 6.8C30.64 6.8 32.8 8.96 32.8 11.6L32.76 36.4C32.76 39.04 30.64 41.2 28 41.2C25.36 41.2 23.2 39.04 23.2 36.4V11.6ZM49.2 36C49.2 48 39.04 56.4 28 56.4C16.96 56.4 6.8 48 6.8 36H0C0 49.64 10.88 60.92 24 62.88V76H32V62.88C45.12 60.96 56 49.68 56 36H49.2Z" fill="#1DD000"/>
</svg>
