<?xml version="1.0" encoding="UTF-8" standalone="no"?>
<svg
   width="80"
   height="80"
   viewBox="0 0 80 80"
   fill="none"
   version="1.1"
   id="svg1"
   sodipodi:docname="pressedBtn.svg"
   inkscape:version="1.3 (0e150ed6c4, 2023-07-21)"
   xmlns:inkscape="http://www.inkscape.org/namespaces/inkscape"
   xmlns:sodipodi="http://sodipodi.sourceforge.net/DTD/sodipodi-0.dtd"
   xmlns="http://www.w3.org/2000/svg"
   xmlns:svg="http://www.w3.org/2000/svg">
  <defs
     id="defs1" />
  <sodipodi:namedview
     id="namedview1"
     pagecolor="#ffffff"
     bordercolor="#000000"
     borderopacity="0.25"
     inkscape:showpageshadow="2"
     inkscape:pageopacity="0.0"
     inkscape:pagecheckerboard="0"
     inkscape:deskcolor="#d1d1d1"
     inkscape:zoom="10.0625"
     inkscape:cx="40"
     inkscape:cy="40"
     inkscape:window-width="1920"
     inkscape:window-height="1011"
     inkscape:window-x="0"
     inkscape:window-y="0"
     inkscape:window-maximized="1"
     inkscape:current-layer="svg1" />
  <path
     d="M40 0C17.92 0 0 17.92 0 40C0 62.08 17.92 80 40 80C62.08 80 80 62.08 80 40C80 17.92 62.08 0 40 0ZM32 58V22L56 40L32 58Z"
     fill="black"
     id="path1" />
  <path
     style="fill:#00b500;stroke-width:0.0993789;fill-opacity:1"
     d="M 37.018634,79.848333 C 31.555521,79.365782 26.772783,78.03743 22.140093,75.715986 10.834753,70.05087 2.7742217,59.219084 0.65134476,46.839285 0.16086634,43.979005 -0.00187352,41.392477 0.11316888,38.285714 0.64405306,23.948992 9.174449,10.781109 22.140093,4.284014 26.37456,2.1621193 30.731304,0.87357254 35.677019,0.28034554 37.472298,0.0650059 42.098003,0.03589369 43.875776,0.22874606 51.877911,1.0968158 58.945128,4.0035346 65.142857,8.975814 c 1.61534,1.295946 4.646835,4.341957 5.952207,5.980708 5.030964,6.315823 7.98182,13.629222 8.701271,21.565217 0.133461,1.472163 0.133461,5.484359 0,6.956522 -0.719451,7.935995 -3.670307,15.249394 -8.701271,21.565217 -1.321724,1.65928 -4.352487,4.700862 -5.974094,5.995421 -6.106436,4.874878 -13.03775,7.77776 -20.69861,8.66872 -1.576553,0.183353 -5.974646,0.266943 -7.403726,0.140714 z M 56,40 C 56,39.95227 50.6,35.863089 44,30.912926 L 32,21.912632 V 40 58.087368 L 44,49.087074 C 50.6,44.136911 56,40.047729 56,40 Z"
     id="path2" />
</svg>
