<svg width="72" height="72" viewBox="0 0 72 72" fill="none" xmlns="http://www.w3.org/2000/svg">
<path d="M54 36C54 28.92 49.92 22.84 44 19.88V28.72L53.8 38.52C53.92 37.72 54 36.88 54 36ZM64 36C64 39.76 63.2 43.28 61.84 46.56L67.88 52.6C70.52 47.64 72 42 72 36C72 18.88 60.04 4.56 44 0.92V9.16C55.56 12.6 64 23.32 64 36ZM5.08 0L0 5.08L18.92 24H0V48H16L36 68V41.08L53 58.08C50.32 60.16 47.32 61.8 44 62.8V71.04C49.52 69.8 54.52 67.24 58.76 63.8L66.92 72L72 66.92L36 30.92L5.08 0ZM36 4L27.64 12.36L36 20.72V4Z" fill="black"/>
</svg>
